<?xml version="1.0" standalone="no"?><svg xmlns="http://www.w3.org/2000/svg" viewBox="0 0 1440 320"><path fill="#0099ff" fill-opacity="0.59" d="M0,160L18.5,149.3C36.9,139,74,117,111,133.3C147.7,149,185,203,222,202.7C258.5,203,295,149,332,154.7C369.2,160,406,224,443,261.3C480,299,517,309,554,266.7C590.8,224,628,128,665,122.7C701.5,117,738,203,775,240C812.3,277,849,267,886,229.3C923.1,192,960,128,997,128C1033.8,128,1071,192,1108,234.7C1144.6,277,1182,299,1218,298.7C1255.4,299,1292,277,1329,266.7C1366.2,256,1403,256,1422,256L1440,256L1440,0L1421.5,0C1403.1,0,1366,0,1329,0C1292.3,0,1255,0,1218,0C1181.5,0,1145,0,1108,0C1070.8,0,1034,0,997,0C960,0,923,0,886,0C849.2,0,812,0,775,0C738.5,0,702,0,665,0C627.7,0,591,0,554,0C516.9,0,480,0,443,0C406.2,0,369,0,332,0C295.4,0,258,0,222,0C184.6,0,148,0,111,0C73.8,0,37,0,18,0L0,0Z"></path></svg>